<?xml version="1.0" encoding="utf-8"?>
<svg width="328px" height="148px" viewBox="0 0 328 148" version="1.1" xmlns:xlink="http://www.w3.org/1999/xlink" xmlns="http://www.w3.org/2000/svg">
  <defs>
    <rect width="328" height="148" id="artboard_1" />
    <clipPath id="clip_1">
      <use xlink:href="#artboard_1" clip-rule="evenodd" />
    </clipPath>
  </defs>
  <g id="Logo-ver" clip-path="url(#clip_1)">
    <path d="M0 0L328 0L328 148L0 148L0 0Z" id="Logo-ver-(Background)" fill="none" fill-rule="evenodd" stroke="none" />
    <g id="УК-РемСтройЭксплуатация" fill="#FFFFFF" transform="translate(4 111)">
      <path d="M169.293 23.517Q168.035 23.517 166.689 23.3734Q165.349 23.2367 164.563 22.9633Q164.029 22.765 163.592 22.4848Q163.161 22.2045 162.997 21.6713Q162.854 21.1928 162.696 20.4135Q162.546 19.6273 162.546 19.0941Q162.546 18.8754 162.628 18.6498Q162.717 18.4242 162.881 18.3969Q163.079 18.3969 163.243 18.6361Q163.414 18.8754 163.469 19.0941Q164.118 20.8578 165.643 21.7738Q167.167 22.683 169.074 22.683Q170.64 22.683 171.761 21.9584Q172.882 21.227 173.62 20.0102Q174.365 18.7865 174.755 17.2758Q175.145 15.765 175.234 14.227Q175.261 14.0561 175.172 13.9877Q175.09 13.9193 175.035 13.974Q174.338 14.7533 173.689 15.1361Q173.046 15.5121 172.321 15.5121Q171.816 15.5121 171.31 15.307Q170.811 15.0951 170.305 14.8695Q169.826 14.6439 169.307 14.4525Q168.794 14.2543 168.234 14.2543Q167.529 14.2543 167.037 14.35Q166.552 14.4457 166.231 14.5893Q165.909 14.726 165.656 14.8422Q165.547 14.8969 165.445 14.7738Q165.349 14.6439 165.349 14.5346Q165.349 14.5072 165.643 14.1996Q165.937 13.8852 166.422 13.4955Q166.914 13.1059 167.488 12.8119Q168.063 12.518 168.596 12.518Q169.327 12.518 169.895 12.7162Q170.469 12.9076 170.975 13.1332Q171.481 13.3246 171.939 13.5229Q172.404 13.7211 172.882 13.7211Q173.607 13.7211 174.078 13.598Q174.557 13.4682 175.008 13.2152Q175.117 13.1605 175.186 13.1332Q175.261 13.1059 175.234 12.935Q175.117 10.973 174.386 9.2709Q173.661 7.56191 172.315 6.48183Q170.975 5.40176 168.986 5.40176Q167.673 5.40176 166.538 5.89394Q165.404 6.38613 164.631 7.19961Q163.865 8.00625 163.613 9.04531Q163.558 9.32558 163.455 9.60586Q163.36 9.88613 163.134 9.91348Q162.943 9.94082 162.881 9.70156Q162.826 9.4623 162.826 9.2709Q162.854 8.59414 162.99 7.7123Q163.134 6.83047 163.25 6.21523Q163.305 5.90762 163.373 5.64101Q163.442 5.37441 163.613 5.37441Q163.975 5.34707 164.658 5.15566Q165.349 4.95742 165.738 4.87539Q166.634 4.67715 167.68 4.59512Q168.733 4.50625 169.409 4.50625Q171.228 4.50625 172.779 5.23769Q174.338 5.9623 175.5 7.22695Q176.662 8.48476 177.305 10.1117Q177.947 11.7318 177.947 13.5502Q177.947 15.4301 177.332 17.2074Q176.717 18.9848 175.555 20.4135Q174.393 21.8422 172.807 22.683Q171.228 23.517 169.293 23.517ZM32.2755 23.0316Q33.212 23.6059 34.504 23.6059Q35.2286 23.6059 35.8849 23.4486Q36.548 23.2982 36.8282 23.1Q36.9103 23.0453 36.9786 22.9496Q37.0538 22.8471 37.0538 22.7377Q37.0538 22.5941 36.965 22.4984Q36.8829 22.4027 36.7462 22.4027Q35.9327 22.4027 35.3722 22.307Q34.8116 22.2045 34.3468 21.8695Q33.8888 21.5346 33.3829 20.7963Q32.8771 20.0512 32.1798 18.7865L29.9103 14.726Q29.5206 14.0014 29.3907 13.6527Q29.2677 13.2973 29.1583 13.0785Q29.0968 12.935 29.0695 12.7982Q29.0421 12.6547 29.1857 12.4633Q29.4933 12.0668 29.7599 11.5814Q30.0265 11.0893 30.2726 10.474L31.2296 8.17715Q31.5919 7.28164 31.9269 7.04238Q32.2618 6.80312 32.713 6.80312Q33.048 6.80312 33.4786 7.01504Q33.9161 7.22695 34.3058 7.22695Q34.6681 7.22695 35.0167 6.91933Q35.3722 6.60488 35.3722 5.90762Q35.3722 5.34707 35.1466 4.94375Q34.921 4.53359 34.0255 4.53359Q33.0206 4.53359 32.3165 4.9164Q31.6193 5.29238 31.1818 5.90762Q30.7511 6.52285 30.4708 7.2543L29.4044 10.0229Q28.8781 11.3695 27.9073 12.2104Q26.9435 13.0512 25.5695 13.0512L24.5646 13.0512Q24.4484 13.0512 24.421 12.9418Q24.3937 12.8256 24.3937 12.518L24.3937 7.67129Q24.3937 6.85781 24.6329 6.37246Q24.8722 5.88027 25.9044 5.68203Q26.3829 5.6 26.6085 5.46328Q26.8341 5.31973 26.8341 5.12148Q26.8341 4.95742 26.6085 4.88906Q26.3829 4.81387 26.0206 4.81387Q25.2618 4.81387 24.8995 4.84805Q24.5372 4.87539 24.2433 4.88906Q23.9493 4.90273 23.4435 4.90273Q22.8009 4.90273 22.3497 4.88906Q21.9054 4.87539 21.4132 4.84805Q20.921 4.81387 20.1691 4.81387Q19.8068 4.81387 19.5812 4.88906Q19.3556 4.95742 19.3556 5.12148Q19.3556 5.51797 20.2784 5.68203Q21.3448 5.88027 21.7482 6.29043Q22.1583 6.69375 22.1583 7.67129L22.1583 20.2699Q22.1583 21.309 21.7482 21.7738Q21.3448 22.2318 20.2784 22.4301Q19.3556 22.5941 19.3556 22.9291Q19.3556 23.1 19.5812 23.1684Q19.8068 23.2367 20.1691 23.2367Q20.921 23.2367 21.4542 23.182Q21.9874 23.1273 22.507 23.0863Q23.0265 23.0453 23.6964 23.0453Q24.2296 23.0453 24.5509 23.0863Q24.8722 23.1273 25.2755 23.182Q25.6857 23.2367 26.4376 23.2367Q26.8068 23.2367 27.0255 23.1684Q27.2511 23.1 27.2511 22.9291Q27.2511 22.7377 27.0255 22.6283Q26.8068 22.5121 26.3282 22.4301Q25.6241 22.2865 25.2072 21.9516Q24.7902 21.6166 24.5919 21.1107Q24.3937 20.6049 24.3937 20.017L24.3937 14.473Q24.3937 14.3363 24.421 14.1449Q24.4484 13.9467 24.6466 13.9467Q25.0363 13.9467 25.4874 13.9604Q25.9386 13.974 26.3556 14.0561Q26.9161 14.1654 27.5587 14.8559Q28.2013 15.5395 28.6798 16.6059L30.6691 20.974Q31.339 22.4574 32.2755 23.0316ZM94.0869 22.8471Q95.9053 23.517 97.8672 23.517Q99.2412 23.517 100.684 23.3187Q102.126 23.1273 103.158 22.7104Q103.609 22.5668 103.732 22.4574Q103.862 22.3412 104.054 21.9516Q104.225 21.5346 104.402 20.9877Q104.587 20.4408 104.696 19.9555Q104.813 19.4633 104.813 19.2377Q104.813 18.7865 104.43 18.7865Q104.054 18.7865 103.862 19.1488Q102.933 20.8031 101.613 21.726Q100.301 22.6488 98.291 22.6488Q96.5547 22.6488 95.1397 21.8559Q93.7246 21.0561 92.6992 19.7299Q91.6807 18.3969 91.1338 16.7494Q90.5869 15.0951 90.5869 13.3861Q90.5869 11.8412 91.1475 10.4193Q91.708 8.99062 92.6992 7.85586Q93.6973 6.72109 95.0782 6.06484Q96.4659 5.40176 98.0928 5.40176Q99.2412 5.40176 100.232 5.64101Q101.23 5.88027 101.928 6.35879Q102.652 6.85781 103.015 7.63027Q103.384 8.40273 103.664 9.4623Q103.746 9.76992 103.985 9.83144Q104.225 9.88613 104.43 9.76308Q104.642 9.6332 104.614 9.43496Q104.587 8.34121 104.505 7.60293Q104.423 6.85781 104.361 6.21523Q104.334 5.82558 104.149 5.6Q103.972 5.37441 103.555 5.26504Q102.598 5.01211 101.88 4.86172Q101.169 4.70449 100.41 4.62246Q99.6582 4.53359 98.5645 4.53359Q96.4112 4.53359 94.4629 5.25137Q92.5215 5.9623 91.0039 7.2543Q89.4932 8.53945 88.625 10.2758Q87.7569 12.0121 87.7569 14.0561Q87.7569 16.182 88.584 17.932Q89.4112 19.682 90.8399 20.933Q92.2686 22.1771 94.0869 22.8471ZM44.0789 23.2367Q43.7166 23.2367 43.491 23.1684Q43.2654 23.1 43.2654 22.9291Q43.2654 22.5941 44.1883 22.4301Q45.2547 22.2318 45.7401 21.7875Q46.2322 21.3363 46.2322 20.2973L46.2322 8.48476Q46.2322 7.22695 45.9109 6.55703Q45.5897 5.88027 44.5301 5.68203Q44.0516 5.6 43.826 5.46328Q43.6004 5.31973 43.6004 5.12148Q43.6004 4.95742 43.826 4.88906Q44.0516 4.81387 44.4139 4.81387L45.5486 4.81387Q45.9246 4.81387 46.2596 4.82754Q46.6014 4.84121 47.1619 4.84121Q47.7225 4.84121 48.2967 4.80019Q48.8709 4.75918 49.3699 4.71816Q49.8758 4.67715 50.2654 4.67715Q53.4578 4.67715 55.4061 5.99648Q57.3543 7.30898 57.3543 9.66055Q57.3543 11.3695 56.6776 12.8119Q56.0076 14.2543 54.6199 15.1225Q53.2322 15.9906 51.0789 15.9906Q50.4637 15.9906 50.1424 15.8061Q49.8211 15.6215 49.8211 15.4574Q49.8211 15.3412 49.9715 15.2045Q50.1287 15.0609 50.2654 15.0609Q50.409 15.0609 50.7029 15.0951Q50.9969 15.1225 51.5574 15.1225Q53.2322 15.1225 54.0867 13.7211Q54.9412 12.3197 54.9412 9.85879Q54.9412 7.6166 53.6219 6.54336Q52.3094 5.46328 50.2654 5.46328Q49.4861 5.46328 48.9803 5.72988Q48.4744 5.98965 48.4744 6.63906L48.4744 19.9896Q48.4744 21.0014 48.8914 21.6166Q49.3152 22.2318 50.3543 22.4301Q50.826 22.5121 51.0516 22.6283Q51.2772 22.7377 51.2772 22.9291Q51.2772 23.1 51.0516 23.1684Q50.826 23.2367 50.4637 23.2367Q49.7049 23.2367 49.3016 23.182Q48.8983 23.1273 48.5701 23.0863Q48.2488 23.0453 47.7225 23.0453Q47.0184 23.0453 46.4715 23.0863Q45.9246 23.1273 45.3777 23.182Q44.8377 23.2367 44.0789 23.2367ZM4.67088 23.9545Q5.2451 24.2211 5.88768 24.2211Q6.7285 24.2211 7.53514 23.4896Q8.34862 22.765 9.28514 21.1586Q10.2285 19.5453 11.4043 16.8861L15.4648 7.78066Q15.7724 7.00137 16.2441 6.41348Q16.7226 5.82558 17.4541 5.68203Q17.9258 5.57265 18.1514 5.44961Q18.3769 5.31973 18.3769 5.12148Q18.3769 4.95742 18.1514 4.88906Q17.9258 4.81387 17.5635 4.81387Q17.0849 4.81387 16.3672 4.86172Q15.6562 4.90273 14.8769 4.90273Q14.1455 4.90273 13.6943 4.88906Q13.25 4.87539 12.6074 4.87539Q12.2451 4.87539 12.0195 4.94375Q11.7939 5.01211 11.7939 5.18301Q11.7939 5.37441 12.1152 5.51797Q12.4365 5.65469 12.7168 5.73672Q13.1953 5.88027 13.6806 6.24258Q14.1728 6.60488 14.1728 7.16543Q14.1728 7.36367 14.0293 7.91055Q13.8926 8.45742 13.6738 9.01797L10.9531 15.765Q10.6181 16.5785 10.3926 16.5785Q10.2832 16.5785 10.1943 16.3666Q10.1123 16.1547 9.94823 15.765L6.58495 8.99062Q6.22264 8.20449 5.9287 7.65762Q5.63475 7.11074 5.63475 6.74844Q5.63475 6.16055 6.06541 5.96914Q6.50291 5.7709 6.70116 5.70937Q7.17284 5.57265 7.39842 5.46328Q7.62401 5.34707 7.62401 5.14883Q7.62401 4.98476 7.39842 4.9164Q7.17284 4.84121 6.81053 4.84121Q6.53026 4.84121 6.16795 4.86172Q5.80565 4.87539 5.40916 4.88906Q5.01952 4.90273 4.56834 4.90273Q3.92577 4.90273 3.33788 4.88906Q2.74998 4.87539 2.23045 4.84805Q1.71776 4.81387 1.29393 4.81387Q0.931625 4.81387 0.706039 4.88906Q0.480453 4.95742 0.480453 5.12148Q0.480453 5.31973 0.706039 5.5043Q0.931625 5.68203 1.41014 5.73672Q2.30565 5.85293 2.80467 6.58437Q3.31053 7.30898 3.84373 8.48476L8.46483 18.4516Q8.60155 18.7318 8.69725 18.9574Q8.79979 19.183 8.79979 19.4018Q8.79979 19.6 8.71092 19.7982Q8.62889 19.9896 8.54686 20.1332Q8.10252 21.0834 7.71971 21.4184Q7.34373 21.7533 6.78319 21.7533Q6.1953 21.7533 5.70311 21.6303Q5.21776 21.5072 4.84862 21.3637Q4.541 21.227 4.31541 21.1449Q4.09666 21.0561 4.01463 21.0561Q3.84373 21.0561 3.61815 21.3363Q3.39256 21.6166 3.39256 21.7533Q3.39256 22.5941 3.7412 23.141Q4.09666 23.6879 4.67088 23.9545ZM151.932 9.47598Q152.691 9.76992 153.504 9.76992Q154.372 9.76992 155.152 9.39394Q155.938 9.01797 156.444 8.26601Q156.95 7.50723 156.95 6.35879Q156.95 5.9623 156.724 5.9623Q156.608 5.9623 156.512 6.09219Q156.416 6.21523 156.245 6.69375Q155.883 7.75332 155.241 8.17715Q154.598 8.59414 153.949 8.59414Q153.279 8.59414 152.759 8.24551Q152.24 7.89687 152.24 7.47305Q152.24 7.19277 152.253 7.01504Q152.274 6.83047 152.274 6.52285Q152.274 6.18789 152.021 5.94863Q151.768 5.70937 151.317 5.70937Q150.9 5.70937 150.578 6.09219Q150.257 6.46816 150.257 7.19277Q150.257 8.00625 150.715 8.59414Q151.18 9.18203 151.932 9.47598ZM118.584 31.0365Q118.809 31.0775 118.953 31.0775Q119.513 31.0775 119.821 31.0365Q120.129 30.9955 120.423 30.9682Q120.717 30.9408 121.195 30.9408Q121.92 30.9408 122.467 31.0092Q123.013 31.0775 123.827 31.0775Q123.991 31.0775 124.217 31.0365Q124.442 30.9955 124.442 30.8246Q124.442 30.6059 124.23 30.5033Q124.018 30.4076 123.793 30.3256Q123.512 30.2367 123.137 30.141Q122.761 30.0453 122.467 29.8334Q122.173 29.6215 122.173 29.2592L122.173 24.0229Q122.173 23.9408 122.186 23.5854Q122.2 23.2367 122.227 22.9154Q122.255 22.5941 122.282 22.5941Q122.562 22.8471 123.082 23.0453Q123.601 23.2367 124.148 23.3598Q124.695 23.4896 125.085 23.4896Q126.397 23.4896 127.546 22.9154Q128.694 22.3412 129.562 21.391Q130.43 20.4408 130.902 19.2514Q131.381 18.0619 131.381 16.7973Q131.381 15.4848 130.834 14.268Q130.294 13.0512 129.268 12.2787Q128.25 11.5062 126.794 11.5062Q125.926 11.5062 124.969 11.8617Q124.018 12.2104 123.273 12.6479Q122.535 13.0785 122.255 13.3588Q122.227 13.3246 122.227 13.1059Q122.227 12.7709 122.296 12.224Q122.371 11.6771 122.371 11.4242Q122.371 11.3422 122.309 11.2602Q122.255 11.1713 122.2 11.1713Q122.173 11.1713 122.173 11.185Q122.173 11.1986 122.145 11.1986Q121.469 11.4789 120.71 11.7729Q119.958 12.0668 118.898 12.3197Q118.809 12.3471 118.755 12.4359Q118.7 12.518 118.7 12.6547Q118.7 12.7709 118.755 12.8803Q118.809 12.9896 118.926 13.017Q119.397 13.1059 119.678 13.5297Q119.958 13.9467 120.081 14.3979Q120.211 14.8422 120.211 15.0609L120.211 29.2592Q120.211 29.8197 119.814 29.9975Q119.425 30.182 119.008 30.3256Q118.782 30.4076 118.57 30.5033Q118.365 30.6059 118.365 30.8246Q118.365 30.9955 118.584 31.0365ZM189.873 23.3187Q190.351 23.4896 190.912 23.4896Q191.5 23.4896 191.848 23.2914Q192.197 23.1 192.197 22.9291Q192.197 22.7104 191.999 22.56Q191.807 22.4027 191.445 22.2865Q190.604 21.9789 190.016 21.4047Q189.428 20.8305 188.895 20.0512Q188.451 19.3471 187.972 18.5199Q187.494 17.6928 186.879 16.7426L186.797 16.6195Q186.769 16.5785 186.879 16.4896Q187.275 16.2094 187.61 15.683Q187.945 15.1498 188.212 14.6166Q188.478 14.0834 188.642 13.8578Q188.868 13.5775 189.046 13.3861Q189.23 13.1879 189.599 13.1879Q189.873 13.1879 190.276 13.4135Q190.686 13.6391 190.967 13.6391Q191.363 13.6391 191.582 13.3314Q191.807 13.017 191.807 12.5727Q191.807 12.1488 191.486 11.7729Q191.165 11.3969 190.433 11.3969Q189.791 11.3969 189.326 11.6498Q188.868 11.9027 188.547 12.3402Q188.225 12.7709 187.959 13.3041Q187.692 13.8305 187.385 14.3637Q186.879 15.2865 186.134 16.018Q185.395 16.7426 183.967 16.7426Q183.857 16.7426 183.755 16.7016Q183.659 16.6605 183.659 16.517L183.659 13.9193Q183.659 13.2699 183.967 12.9486Q184.274 12.6273 184.698 12.518Q184.917 12.4291 185.129 12.3197Q185.341 12.2104 185.341 12.0121Q185.341 11.7865 185.074 11.7729Q184.807 11.7592 184.698 11.7592Q184.165 11.7592 183.898 11.7865Q183.632 11.8139 183.406 11.8617Q183.187 11.9027 182.681 11.9027Q182.203 11.9027 181.977 11.8617Q181.759 11.8139 181.519 11.7865Q181.28 11.7592 180.719 11.7592Q180.61 11.7592 180.344 11.7729Q180.077 11.7865 180.077 12.0121Q180.077 12.2104 180.282 12.3197Q180.494 12.4291 180.719 12.518Q181.143 12.6273 181.451 12.935Q181.759 13.2426 181.759 13.8578L181.759 21.4457Q181.759 22.0336 181.362 22.1635Q180.972 22.2865 180.555 22.4301Q180.33 22.5121 180.118 22.6146Q179.906 22.7104 179.906 22.9291Q179.906 23.1273 180.173 23.1547Q180.439 23.182 180.555 23.182Q181.109 23.182 181.403 23.141Q181.697 23.1 181.977 23.0727Q182.258 23.0453 182.736 23.0453Q183.242 23.0453 183.509 23.0727Q183.775 23.1 184.083 23.141Q184.39 23.182 184.917 23.182Q185.033 23.182 185.3 23.1547Q185.566 23.1273 185.566 22.9291Q185.566 22.7104 185.354 22.6146Q185.142 22.5121 184.917 22.4301Q184.5 22.2865 184.076 22.1225Q183.659 21.9516 183.659 21.3637L183.659 17.6107Q183.659 17.3578 183.939 17.3578Q184.78 17.3578 185.238 17.7406Q185.703 18.1166 186.093 18.7934Q186.489 19.4633 187.077 20.4135Q187.61 21.2543 188.068 21.8422Q188.533 22.4301 188.964 22.7924Q189.401 23.1547 189.873 23.3187ZM61.326 22.765Q62.4744 23.517 64.0125 23.517Q64.7713 23.517 65.4686 23.3051Q66.1727 23.1 66.7606 22.7104Q67.3485 22.3139 67.7655 21.7807Q68.2713 21.1381 68.2713 20.6049Q68.2713 20.3246 68.0457 20.3246Q67.9637 20.3246 67.909 20.3725Q67.8543 20.4135 67.7381 20.5502Q67.2049 21.1654 66.5213 21.4936Q65.8377 21.8148 64.9969 21.8148Q63.8211 21.8148 62.8367 21.1586Q61.8592 20.4955 61.2713 19.3881Q60.6834 18.2807 60.6834 16.9408Q60.6834 16.3256 60.8338 16.1137Q60.991 15.9018 61.3807 15.9018L67.2938 15.9018Q68.1346 15.9018 68.1346 15.0336Q68.1346 14.0014 67.6424 13.2016Q67.1502 12.4018 66.2821 11.9574Q65.4139 11.5062 64.2928 11.5062Q62.8367 11.5062 61.6063 12.3197Q60.3758 13.1332 59.6307 14.4662Q58.8924 15.7924 58.8924 17.4193Q58.8924 19.2377 59.535 20.6254Q60.1776 22.0062 61.326 22.765ZM109.852 23.182Q109.715 23.182 109.462 23.141Q109.209 23.1 109.209 22.9291Q109.209 22.7104 109.414 22.6146Q109.626 22.5121 109.852 22.4301Q110.269 22.2865 110.645 22.0951Q111.028 21.8969 111.028 21.2816L111.028 13.6937Q111.028 13.4408 110.973 13.1195Q110.918 12.7982 110.693 12.7982L109.011 12.7982Q108.594 12.7982 108.341 12.9691Q108.088 13.1332 107.904 13.4818Q107.726 13.8305 107.555 14.4457Q107.5 14.6713 107.316 14.9105Q107.138 15.1498 106.912 15.1498Q106.803 15.1498 106.714 15.0404Q106.632 14.9242 106.632 14.726Q106.632 14.6713 106.646 14.5893Q106.659 14.5072 106.687 14.4184Q106.803 14.0287 106.912 13.2904Q107.022 12.5453 107.022 12.0121Q107.022 11.7865 107.117 11.6498Q107.22 11.5062 107.446 11.5062Q107.671 11.5062 107.835 11.5678Q108.006 11.6225 108.341 11.7045Q108.649 11.7865 108.943 11.848Q109.237 11.9027 109.742 11.9027L115.505 11.9027Q115.874 11.9027 116.237 11.8754Q116.599 11.8412 116.715 11.7592Q116.852 11.6498 117.016 11.5814Q117.187 11.5062 117.241 11.5062Q117.33 11.5062 117.44 11.6225Q117.549 11.7318 117.549 11.9301Q117.549 12.2104 117.494 12.5453Q117.44 12.8803 117.44 13.2426Q117.44 13.5775 117.453 13.9057Q117.467 14.227 117.494 14.5346Q117.522 14.726 117.426 14.9379Q117.33 15.1498 117.132 15.1498Q116.934 15.1498 116.804 14.8832Q116.681 14.6166 116.654 14.4457Q116.626 13.9467 116.455 13.5707Q116.291 13.1879 115.956 12.9965Q115.621 12.7982 115.088 12.7982L113.406 12.7982Q113.126 12.7982 113.058 13.1059Q112.989 13.4135 112.989 13.6937L112.989 21.309Q112.989 21.8969 113.393 22.0951Q113.803 22.2865 114.22 22.4301Q114.446 22.5121 114.651 22.6146Q114.863 22.7104 114.863 22.9291Q114.863 23.1 114.61 23.141Q114.357 23.182 114.22 23.182Q113.687 23.182 113.379 23.141Q113.072 23.1 112.805 23.0727Q112.538 23.0453 112.032 23.0453Q111.561 23.0453 111.281 23.0727Q111 23.1 110.706 23.141Q110.412 23.182 109.852 23.182ZM138.913 23.4896Q137.347 23.4896 136.083 22.765Q134.825 22.0336 134.08 20.7621Q133.341 19.4906 133.341 17.8637Q133.341 16.6879 133.806 15.5668Q134.271 14.4457 135.105 13.5229Q135.946 12.6 137.067 12.0531Q138.188 11.5062 139.473 11.5062Q141.1 11.5062 142.399 12.2924Q143.705 13.0785 144.47 14.35Q145.243 15.6215 145.243 17.1391Q145.243 18.7592 144.525 20.2152Q143.814 21.6713 142.413 22.5805Q141.018 23.4896 138.913 23.4896ZM198.581 23.517Q197.187 23.517 196.052 22.8061Q194.917 22.0951 194.254 20.851Q193.598 19.6 193.598 18.0619Q193.598 16.2367 194.397 14.7533Q195.197 13.2699 196.537 12.3881Q197.884 11.5062 199.511 11.5062Q201.329 11.5062 202.703 12.4906Q203.038 12.7367 203.038 13.017Q203.038 13.2426 202.84 13.5229Q202.642 13.8031 202.361 13.9877Q202.081 14.1654 201.835 14.1654Q201.691 14.1654 201.548 14.0697Q201.411 13.974 201.247 13.8578Q200.625 13.3861 199.866 12.9691Q199.114 12.5453 198.615 12.5453Q197.241 12.5453 196.387 13.8236Q195.532 15.0951 195.532 17.1664Q195.532 18.4789 196.106 19.5453Q196.681 20.6049 197.645 21.227Q198.615 21.8422 199.791 21.8422Q200.598 21.8422 201.186 21.5756Q201.773 21.309 202.45 20.6391Q202.505 20.5775 202.587 20.5365Q202.669 20.4955 202.73 20.4955Q203.038 20.4955 203.038 20.8852Q203.038 21.0561 202.936 21.268Q202.84 21.473 202.614 21.7533Q202.17 22.3139 201.555 22.724Q200.939 23.1273 200.194 23.3187Q199.449 23.517 198.581 23.517ZM247.107 23.4896Q246.608 23.4896 246.088 23.1Q245.569 22.7104 245.22 22.1498Q244.871 21.5893 244.871 21.0834Q244.871 20.1879 245.343 19.6889Q245.822 19.183 246.854 18.7592L249.711 17.5834Q250.272 17.3578 250.368 17.1937Q250.47 17.0229 250.497 16.4623L250.552 14.6713Q250.579 13.9467 250.142 13.4135Q249.711 12.8803 248.898 12.8803Q248.481 12.8803 248.057 13.0238Q247.64 13.1605 247.36 13.3861Q247.196 13.4955 247.134 13.7211Q247.079 13.9467 247.079 14.1928Q247.079 14.309 247.093 14.4525Q247.107 14.5893 247.107 14.6986Q247.107 14.8422 246.758 15.0814Q246.41 15.3139 245.972 15.4984Q245.541 15.683 245.261 15.683Q245.118 15.683 245.035 15.6146Q244.953 15.5395 244.953 15.4301Q244.953 14.9789 245.247 14.4662Q245.541 13.9467 246.075 13.4955Q246.717 12.9076 247.469 12.4633Q248.228 12.0121 248.952 11.7592Q249.684 11.5062 250.244 11.5062Q251.249 11.5062 251.906 12.224Q252.569 12.935 252.541 14.0014L252.398 20.7211Q252.37 21.309 252.664 21.6713Q252.958 22.0336 253.41 22.0336Q254.107 22.0336 254.442 21.726Q254.585 21.5893 254.667 21.5893Q254.811 21.5893 254.893 21.6713Q254.975 21.7533 254.975 21.8969Q254.975 22.2045 254.667 22.5121Q254.223 22.9633 253.703 23.223Q253.184 23.4896 252.74 23.4896Q251.448 23.4896 250.696 22.0336L250.607 22.0336Q249.684 22.7924 248.843 23.141Q248.002 23.4896 247.107 23.4896ZM258.115 23.141Q258.368 23.182 258.504 23.182Q259.065 23.182 259.359 23.141Q259.653 23.1 259.933 23.0727Q260.213 23.0453 260.685 23.0453Q261.191 23.0453 261.458 23.0727Q261.724 23.1 262.032 23.141Q262.339 23.182 262.873 23.182Q263.009 23.182 263.262 23.141Q263.515 23.1 263.515 22.9291Q263.515 22.7104 263.303 22.6146Q263.098 22.5121 262.873 22.4301Q262.456 22.2865 262.045 22.0951Q261.642 21.8969 261.642 21.309L261.642 13.6937Q261.642 13.4135 261.71 13.1059Q261.779 12.7982 262.059 12.7982L263.741 12.7982Q264.274 12.7982 264.609 12.9965Q264.944 13.1879 265.108 13.5707Q265.279 13.9467 265.306 14.4457Q265.333 14.6166 265.457 14.8832Q265.586 15.1498 265.785 15.1498Q265.983 15.1498 266.079 14.9379Q266.174 14.726 266.147 14.5346Q266.12 14.227 266.106 13.9057Q266.092 13.5775 266.092 13.2426Q266.092 12.8803 266.147 12.5453Q266.202 12.2104 266.202 11.9301Q266.202 11.7318 266.092 11.6225Q265.983 11.5062 265.894 11.5062Q265.839 11.5062 265.668 11.5814Q265.504 11.6498 265.368 11.7592Q265.251 11.8412 264.889 11.8754Q264.527 11.9027 264.158 11.9027L258.395 11.9027Q257.889 11.9027 257.595 11.848Q257.301 11.7865 256.994 11.7045Q256.659 11.6225 256.488 11.5678Q256.324 11.5062 256.098 11.5062Q255.873 11.5062 255.77 11.6498Q255.674 11.7865 255.674 12.0121Q255.674 12.5453 255.565 13.2904Q255.456 14.0287 255.339 14.4184Q255.312 14.5072 255.298 14.5893Q255.285 14.6713 255.285 14.726Q255.285 14.9242 255.367 15.0404Q255.456 15.1498 255.565 15.1498Q255.791 15.1498 255.968 14.9105Q256.153 14.6713 256.208 14.4457Q256.378 13.8305 256.556 13.4818Q256.741 13.1332 256.994 12.9691Q257.247 12.7982 257.664 12.7982L259.345 12.7982Q259.571 12.7982 259.625 13.1195Q259.68 13.4408 259.68 13.6937L259.68 21.2816Q259.68 21.8969 259.297 22.0951Q258.921 22.2865 258.504 22.4301Q258.279 22.5121 258.067 22.6146Q257.862 22.7104 257.862 22.9291Q257.862 23.1 258.115 23.141ZM269.759 23.4896Q269.26 23.4896 268.74 23.1Q268.221 22.7104 267.872 22.1498Q267.523 21.5893 267.523 21.0834Q267.523 20.1879 267.995 19.6889Q268.474 19.183 269.506 18.7592L272.363 17.5834Q272.924 17.3578 273.02 17.1937Q273.122 17.0229 273.149 16.4623L273.204 14.6713Q273.232 13.9467 272.794 13.4135Q272.363 12.8803 271.55 12.8803Q271.133 12.8803 270.709 13.0238Q270.292 13.1605 270.012 13.3861Q269.848 13.4955 269.786 13.7211Q269.732 13.9467 269.732 14.1928Q269.732 14.309 269.745 14.4525Q269.759 14.5893 269.759 14.6986Q269.759 14.8422 269.41 15.0814Q269.062 15.3139 268.624 15.4984Q268.193 15.683 267.913 15.683Q267.77 15.683 267.688 15.6146Q267.606 15.5395 267.606 15.4301Q267.606 14.9789 267.899 14.4662Q268.193 13.9467 268.727 13.4955Q269.369 12.9076 270.121 12.4633Q270.88 12.0121 271.605 11.7592Q272.336 11.5062 272.897 11.5062Q273.901 11.5062 274.558 12.224Q275.221 12.935 275.193 14.0014L275.05 20.7211Q275.023 21.309 275.316 21.6713Q275.61 22.0336 276.062 22.0336Q276.759 22.0336 277.094 21.726Q277.237 21.5893 277.319 21.5893Q277.463 21.5893 277.545 21.6713Q277.627 21.7533 277.627 21.8969Q277.627 22.2045 277.319 22.5121Q276.875 22.9633 276.356 23.223Q275.836 23.4896 275.392 23.4896Q274.1 23.4896 273.348 22.0336L273.259 22.0336Q272.336 22.7924 271.495 23.141Q270.654 23.4896 269.759 23.4896ZM77.5986 23.5785Q77.2021 23.5785 76.9765 23.0727L73.1962 14.6713Q73.1142 14.473 73.0595 14.4594Q73.0564 14.4586 73.0533 14.4586Q73.0017 14.4586 72.9501 14.6713Q72.9228 14.7807 72.875 15.4574Q72.8339 16.1273 72.7656 17.0365Q72.6972 17.9457 72.6357 18.8754Q72.581 19.7982 72.5537 20.4955Q72.5263 21.1928 72.5263 21.3637Q72.5263 21.9242 72.8066 22.1088Q73.0869 22.2865 73.5107 22.4301Q73.7294 22.5121 73.9414 22.6146Q74.1533 22.7104 74.1533 22.9291Q74.1533 23.1 73.9414 23.141Q73.7294 23.182 73.5927 23.182Q73.0595 23.182 72.7929 23.141Q72.5263 23.1 72.2871 23.0727Q72.0546 23.0453 71.5488 23.0453Q71.0703 23.0453 70.913 23.0727Q70.7626 23.1 70.5918 23.141Q70.4277 23.182 69.8671 23.182Q69.7304 23.182 69.5185 23.141Q69.3066 23.1 69.3066 22.9291Q69.3066 22.7104 69.5595 22.6283Q69.8125 22.5395 70.038 22.4574Q70.455 22.3139 70.8584 22.1225Q71.2685 21.9242 71.3232 21.3637L72.1093 14.0014Q72.164 13.2973 71.7812 12.9623Q71.4052 12.6273 70.8447 12.518Q70.6259 12.4633 70.4003 12.3266Q70.1748 12.183 70.1748 11.9848Q70.1748 11.8139 70.4003 11.7865Q70.6259 11.7592 70.7626 11.7592Q70.9062 11.7592 71.2685 11.7865Q71.6308 11.8139 71.9794 11.848Q72.3349 11.8754 72.4716 11.8754Q72.581 11.8754 72.9843 11.8617Q73.3945 11.8412 73.6201 11.8412Q73.7568 11.8412 73.8525 11.9711Q73.955 12.0941 73.9824 12.183L77.8789 20.2426Q78.0156 20.5229 78.1113 20.5502Q78.2138 20.5775 78.3232 20.2973L81.3789 13.5229Q81.5976 13.0512 81.8095 12.477Q82.0214 11.9027 82.1308 11.9027L83.0537 11.9027Q83.6962 11.9027 84.4072 11.8344Q85.125 11.7592 85.2412 11.7592Q85.3779 11.7592 85.5898 11.8002Q85.8017 11.8412 85.8017 12.0121Q85.8017 12.2104 85.5898 12.3402Q85.3779 12.4633 85.1523 12.518Q84.7353 12.6273 84.3251 12.8256Q83.9218 13.017 83.9218 13.5502Q83.9218 14.6986 83.9628 15.642Q84.0107 16.5785 84.0654 17.4604Q84.1201 18.3422 84.1884 19.265Q84.2568 20.1879 84.291 21.3363Q84.3183 21.9242 84.708 22.1088Q85.0976 22.2865 85.5214 22.4301Q85.7402 22.5121 85.9521 22.6146Q86.164 22.7104 86.164 22.9291Q86.164 23.1 85.9521 23.141Q85.7402 23.182 85.6035 23.182Q85.0703 23.182 84.749 23.141Q84.4277 23.1 84.1337 23.0727Q83.8398 23.0453 83.3339 23.0453Q82.8623 23.0453 82.5546 23.0727Q82.247 23.1 81.9326 23.141Q81.625 23.182 81.0644 23.182Q80.9277 23.182 80.7158 23.141Q80.5107 23.1 80.5107 22.9291Q80.5107 22.7104 80.7158 22.6146Q80.9277 22.5121 81.1533 22.4301Q81.5703 22.2865 81.9189 22.1088Q82.2744 21.9242 82.2744 21.3363Q82.2744 20.3588 82.2402 18.5541Q82.2128 16.7426 82.0761 14.7807Q82.0542 14.5117 81.9837 14.4984Q81.9665 14.4951 81.9462 14.5072Q81.8505 14.5619 81.7138 14.8422L78.0703 23.1273Q77.8789 23.5785 77.5986 23.5785ZM232.375 30.8109Q232.826 31.0775 233.359 31.0775Q233.975 31.0775 234.453 30.7836Q234.932 30.4896 235.178 29.9291Q235.602 28.9242 236.06 27.8305Q236.524 26.7367 236.914 25.7865Q237.31 24.8363 237.577 24.1937Q237.844 23.5512 237.871 23.4623L241.679 14.391Q241.959 13.7211 242.431 13.1742Q242.909 12.6273 243.326 12.518Q243.552 12.4291 243.764 12.3197Q243.976 12.2104 243.976 12.0121Q243.976 11.8412 243.764 11.8002Q243.552 11.7592 243.415 11.7592Q243.107 11.7592 242.936 11.7865Q242.766 11.8139 242.526 11.8617Q242.294 11.9027 241.761 11.9027Q240.975 11.9027 240.564 11.8344Q240.161 11.7592 239.771 11.7592Q239.635 11.7592 239.423 11.8344Q239.211 11.9027 239.211 12.0668Q239.211 12.265 239.505 12.4496Q239.799 12.6273 240.024 12.7367Q240.277 12.8529 240.428 13.0648Q240.585 13.2699 240.585 13.8031Q240.585 14.0014 240.51 14.3227Q240.441 14.6439 240.359 14.8422L238.432 19.9623Q238.37 20.1332 238.288 20.1332Q238.179 20.1332 238.117 19.9623L235.854 14.3637Q235.793 14.227 235.711 13.9877Q235.629 13.7484 235.629 13.5775Q235.629 13.1879 235.766 12.9828Q235.909 12.7709 236.189 12.682Q236.415 12.6273 236.709 12.4496Q237.003 12.265 237.003 12.0668Q237.003 11.9027 236.805 11.8344Q236.606 11.7592 236.442 11.7592Q235.882 11.7592 235.602 11.7865Q235.321 11.8139 235.068 11.8617Q234.815 11.9027 234.31 11.9027Q233.838 11.9027 233.599 11.8617Q233.359 11.8139 233.093 11.7865Q232.826 11.7592 232.266 11.7592Q232.129 11.7592 231.917 11.8002Q231.705 11.8412 231.705 12.0121Q231.705 12.2104 231.917 12.3197Q232.129 12.4291 232.354 12.518Q232.771 12.6273 233.093 13.0102Q233.414 13.3861 233.612 13.8852L236.859 22.0951Q236.914 22.2592 236.941 22.4711Q236.976 22.683 236.976 22.9018Q236.976 23.2982 236.887 23.5512Q236.497 24.6107 236.06 25.5609Q235.629 26.518 235.219 27.2699Q234.815 28.0287 234.508 28.5346Q234.398 28.6986 234.268 28.767Q234.145 28.8422 233.975 28.8422Q233.749 28.8422 233.455 28.7533Q233.161 28.6713 232.853 28.6713Q232.409 28.6713 232.17 29.0473Q231.931 29.4301 231.931 29.9291Q231.931 30.5512 232.375 30.8109ZM147.133 23.141Q147.345 23.182 147.482 23.182Q148.042 23.182 148.364 23.141Q148.685 23.1 148.979 23.0727Q149.273 23.0453 149.751 23.0453Q150.257 23.0453 150.537 23.0727Q150.818 23.1 151.139 23.141Q151.46 23.182 152.021 23.182Q152.158 23.182 152.369 23.141Q152.581 23.1 152.581 22.9291Q152.581 22.7104 152.369 22.6146Q152.158 22.5121 151.939 22.4301Q151.515 22.2865 151.105 22.1088Q150.701 21.9242 150.701 21.3363Q150.701 21.1107 150.79 21.0287L156.362 15.2318Q156.399 15.1947 156.423 15.2017Q156.435 15.205 156.444 15.2182Q156.471 15.2592 156.471 15.3754L156.471 21.3363Q156.471 21.8969 156.095 22.0951Q155.719 22.2865 155.295 22.4301Q155.07 22.5121 154.858 22.6146Q154.653 22.7104 154.653 22.9291Q154.653 23.1 154.858 23.141Q155.07 23.182 155.213 23.182Q155.774 23.182 156.095 23.141Q156.416 23.1 156.71 23.0727Q157.004 23.0453 157.483 23.0453Q157.982 23.0453 158.262 23.0727Q158.542 23.1 158.864 23.141Q159.185 23.182 159.745 23.182Q159.889 23.182 160.094 23.141Q160.306 23.1 160.306 22.9291Q160.306 22.7104 160.094 22.6146Q159.889 22.5121 159.663 22.4301Q159.246 22.2865 158.836 22.0951Q158.433 21.8969 158.433 21.3363L158.433 13.6664Q158.433 13.1059 158.795 12.8939Q159.158 12.682 159.581 12.5727Q159.807 12.4906 160.012 12.3812Q160.224 12.265 160.224 12.0668Q160.224 11.9027 160.026 11.8617Q159.834 11.8139 159.663 11.8139Q159.103 11.8139 158.809 11.848Q158.515 11.8754 158.262 11.9164Q158.009 11.9574 157.51 11.9574Q157.032 11.9574 156.779 11.9164Q156.526 11.8754 156.245 11.848Q155.965 11.8139 155.405 11.8139Q155.241 11.8139 155.042 11.8617Q154.851 11.9027 154.851 12.0668Q154.851 12.265 155.056 12.3812Q155.268 12.4906 155.493 12.5727Q155.91 12.682 156.191 12.8666Q156.471 13.0512 156.471 13.6049Q156.471 13.7484 156.43 13.7758Q156.389 13.8031 156.334 13.9193L150.982 19.4291Q150.954 19.4633 150.825 19.4223Q150.701 19.3744 150.701 19.265L150.701 13.6664Q150.701 13.1059 151.023 12.8939Q151.351 12.682 151.768 12.5727Q151.993 12.4906 152.199 12.3812Q152.41 12.265 152.41 12.0668Q152.41 11.9027 152.199 11.8617Q151.993 11.8139 151.85 11.8139Q151.289 11.8139 151.009 11.848Q150.729 11.8754 150.49 11.9164Q150.257 11.9574 149.751 11.9574Q149.273 11.9574 149.006 11.9164Q148.746 11.8754 148.452 11.848Q148.159 11.8139 147.598 11.8139Q147.454 11.8139 147.243 11.8617Q147.037 11.9027 147.037 12.0668Q147.037 12.265 147.243 12.3812Q147.454 12.4906 147.68 12.5727Q148.097 12.682 148.418 12.8939Q148.746 13.1059 148.746 13.6664L148.746 21.3363Q148.746 21.9242 148.364 22.1088Q147.988 22.2865 147.571 22.4301Q147.345 22.5121 147.133 22.6146Q146.921 22.7104 146.921 22.9291Q146.921 23.1 147.133 23.141ZM204.925 23.1547Q205.165 23.182 205.336 23.182Q205.889 23.182 206.156 23.141Q206.422 23.1 206.675 23.0727Q206.928 23.0453 207.407 23.0453Q207.906 23.0453 208.145 23.0727Q208.384 23.1 208.651 23.141Q208.918 23.182 209.451 23.182Q209.642 23.182 209.868 23.1547Q210.093 23.1273 210.093 22.9291Q210.093 22.7104 209.881 22.6146Q209.669 22.5121 209.451 22.4301Q209.027 22.2865 208.665 22.1088Q208.302 21.9242 208.302 21.3637L208.302 13.8578Q208.302 13.6391 208.357 13.2221Q208.412 12.7982 208.774 12.7982L213.258 12.7982Q213.593 12.7982 213.648 13.2221Q213.703 13.6391 213.703 13.8578L213.703 21.3637Q213.703 21.9242 213.34 22.1088Q212.978 22.2865 212.554 22.4301Q212.336 22.5121 212.124 22.6146Q211.912 22.7104 211.912 22.9291Q211.912 23.1273 212.151 23.1547Q212.39 23.182 212.554 23.182Q213.115 23.182 213.381 23.141Q213.648 23.1 213.901 23.0727Q214.154 23.0453 214.626 23.0453Q215.131 23.0453 215.371 23.0727Q215.61 23.1 215.877 23.141Q216.143 23.182 216.669 23.182Q216.868 23.182 217.093 23.1547Q217.319 23.1273 217.319 22.9291Q217.319 22.7104 217.107 22.6146Q216.895 22.5121 216.669 22.4301Q216.253 22.2865 215.959 22.1088Q215.665 21.9242 215.665 21.3637L215.665 14.2543Q215.665 13.4408 215.959 13.1742Q216.253 12.9076 216.95 12.7709Q217.093 12.7367 217.257 12.5863Q217.428 12.4291 217.428 12.2377Q217.428 12.0668 217.162 11.9437Q216.895 11.8139 216.813 11.8139Q216.28 11.8139 215.972 11.8617Q215.665 11.9027 215.186 11.9027L206.819 11.9027Q206.34 11.9027 206.087 11.8617Q205.835 11.8139 205.301 11.8139Q205.219 11.8139 204.953 11.9437Q204.686 12.0668 204.686 12.2377Q204.686 12.4291 204.871 12.5863Q205.055 12.7367 205.165 12.7709Q205.862 12.9076 206.101 13.1605Q206.34 13.4135 206.34 14.227L206.34 21.3637Q206.34 21.9242 206.046 22.1088Q205.753 22.2865 205.336 22.4301Q205.11 22.5121 204.898 22.6146Q204.686 22.7104 204.686 22.9291Q204.686 23.1273 204.925 23.1547ZM220.199 23.4896Q219.105 23.4896 218.627 23.0453Q218.155 22.5941 218.155 22.0951Q218.155 21.6166 218.476 21.268Q218.798 20.9193 219.331 20.9193Q219.666 20.9193 219.878 21.0902Q220.089 21.2543 220.281 21.4184Q220.424 21.5346 220.548 21.6303Q220.677 21.726 220.841 21.726Q221.265 21.726 221.614 20.9877Q221.963 20.2426 222.215 19.0668Q222.468 17.891 222.605 16.5785Q222.749 15.2592 222.749 14.1381Q222.749 13.3246 222.352 13.1059Q221.963 12.8803 221.149 12.7709Q221.04 12.7367 220.855 12.5863Q220.677 12.4291 220.677 12.2377Q220.677 12.0668 220.944 11.9437Q221.211 11.8139 221.293 11.8139Q221.826 11.8139 222.072 11.8617Q222.325 11.9027 222.803 11.9027L228.655 11.9027Q229.215 11.9027 229.482 11.8617Q229.749 11.8139 230.282 11.8139Q230.364 11.8139 230.631 11.9437Q230.897 12.0668 230.897 12.2377Q230.897 12.4291 230.726 12.5863Q230.562 12.7367 230.419 12.7709Q229.721 12.9076 229.427 13.2289Q229.133 13.5502 229.133 14.6986L229.133 21.3637Q229.133 21.9242 229.427 22.1088Q229.721 22.2865 230.138 22.4301Q230.364 22.5121 230.569 22.6146Q230.781 22.7104 230.781 22.9291Q230.781 23.1 230.583 23.141Q230.391 23.182 230.227 23.182Q229.694 23.182 229.4 23.141Q229.106 23.1 228.853 23.0727Q228.6 23.0453 228.094 23.0453Q227.623 23.0453 227.342 23.0727Q227.062 23.1 226.768 23.141Q226.474 23.182 225.941 23.182Q225.77 23.182 225.572 23.141Q225.381 23.1 225.381 22.9291Q225.381 22.7104 225.586 22.6146Q225.798 22.5121 226.023 22.4301Q226.447 22.2865 226.809 22.1088Q227.172 21.9242 227.172 21.3637L227.172 13.8578Q227.172 13.6391 227.117 13.2221Q227.062 12.7982 226.727 12.7982L224.232 12.7982Q223.87 12.7982 223.808 13.2221Q223.754 13.6391 223.754 13.8578Q223.754 15.0336 223.631 16.3529Q223.507 17.6654 223.241 18.9437Q222.974 20.2152 222.55 21.2406Q222.133 22.2592 221.546 22.8744Q220.958 23.4896 220.199 23.4896ZM290.173 26.6684Q290.282 26.9896 290.652 26.9896Q290.788 26.9896 290.98 26.723Q291.178 26.4633 291.205 26.1215Q291.267 24.809 291.404 24.0775Q291.547 23.3529 291.698 22.977Q291.855 22.5941 291.964 22.3139Q291.991 22.2592 291.991 22.2182L291.991 22.1498Q291.991 21.9242 291.602 21.9242Q291.404 21.9242 291.151 21.9652Q290.898 22.0062 290.734 22.0062Q290.371 22.0062 289.948 21.9242Q289.531 21.8422 289.531 21.6439L289.531 13.6391Q289.531 13.0785 289.824 12.8803Q290.118 12.682 290.535 12.5727Q290.761 12.4906 290.966 12.3812Q291.178 12.265 291.178 12.0668Q291.178 11.8754 290.939 11.848Q290.706 11.8139 290.535 11.8139Q290.002 11.8139 289.736 11.848Q289.476 11.8754 289.237 11.9164Q288.997 11.9574 288.491 11.9574Q288.02 11.9574 287.767 11.9164Q287.514 11.8754 287.247 11.848Q286.981 11.8139 286.42 11.8139Q286.222 11.8139 285.996 11.848Q285.778 11.8754 285.778 12.0668Q285.778 12.265 285.983 12.3812Q286.195 12.4906 286.42 12.5727Q286.837 12.682 287.199 12.8803Q287.569 13.0785 287.569 13.6391L287.569 20.9467Q287.569 21.1654 287.514 21.5893Q287.459 22.0062 287.117 22.0062L282.613 22.0062Q282.25 22.0062 282.189 21.5893Q282.134 21.1654 282.134 20.9467L282.134 13.6391Q282.134 13.0785 282.496 12.8803Q282.865 12.682 283.282 12.5727Q283.508 12.4906 283.72 12.3812Q283.932 12.265 283.932 12.0668Q283.932 11.8754 283.706 11.848Q283.481 11.8139 283.282 11.8139Q282.749 11.8139 282.483 11.848Q282.223 11.8754 281.984 11.9164Q281.744 11.9574 281.239 11.9574Q280.767 11.9574 280.514 11.9164Q280.261 11.8754 279.994 11.848Q279.728 11.8139 279.167 11.8139Q279.003 11.8139 278.764 11.848Q278.525 11.8754 278.525 12.0668Q278.525 12.265 278.73 12.3812Q278.942 12.4906 279.167 12.5727Q279.591 12.682 279.885 12.8803Q280.179 13.0785 280.179 13.6391L280.179 21.3637Q280.179 21.9242 279.885 22.1088Q279.591 22.2865 279.167 22.4301Q278.942 22.5121 278.73 22.6146Q278.525 22.7104 278.525 22.9291Q278.525 23.1273 278.791 23.1547Q279.058 23.182 279.167 23.182Q279.728 23.182 279.906 23.1547Q280.09 23.1273 280.213 23.1137Q280.343 23.1 280.651 23.1L288.943 23.1Q289.585 23.1 289.838 23.3529Q290.091 23.6059 290.091 24.727Q290.091 25.0072 290.077 25.3422Q290.064 25.6771 290.064 25.9848Q290.064 26.3471 290.173 26.6684ZM293.306 23.182Q293.17 23.182 292.958 23.141Q292.746 23.1 292.746 22.9291Q292.746 22.7104 292.958 22.6146Q293.17 22.5121 293.395 22.4301Q293.812 22.2865 294.188 22.1088Q294.571 21.9242 294.571 21.3363L294.571 13.6664Q294.571 13.1059 294.243 12.8939Q293.922 12.682 293.505 12.5727Q293.279 12.4906 293.067 12.3812Q292.862 12.265 292.862 12.0668Q292.862 11.9027 293.067 11.8617Q293.279 11.8139 293.423 11.8139Q293.983 11.8139 294.277 11.848Q294.571 11.8754 294.831 11.9164Q295.097 11.9574 295.576 11.9574Q296.082 11.9574 296.314 11.9164Q296.553 11.8754 296.834 11.848Q297.114 11.8139 297.674 11.8139Q297.818 11.8139 298.023 11.8617Q298.235 11.9027 298.235 12.0668Q298.235 12.265 298.023 12.3812Q297.818 12.4906 297.592 12.5727Q297.175 12.682 296.847 12.8939Q296.526 13.1059 296.526 13.6664L296.526 19.265Q296.526 19.3744 296.649 19.4223Q296.779 19.4633 296.806 19.4291L302.159 13.9193Q302.214 13.8031 302.255 13.7758Q302.296 13.7484 302.296 13.6049Q302.296 13.0512 302.015 12.8666Q301.735 12.682 301.318 12.5727Q301.092 12.4906 300.881 12.3812Q300.675 12.265 300.675 12.0668Q300.675 11.9027 300.867 11.8617Q301.065 11.8139 301.229 11.8139Q301.79 11.8139 302.07 11.848Q302.35 11.8754 302.603 11.9164Q302.856 11.9574 303.335 11.9574Q303.834 11.9574 304.087 11.9164Q304.34 11.8754 304.633 11.848Q304.927 11.8139 305.488 11.8139Q305.659 11.8139 305.85 11.8617Q306.049 11.9027 306.049 12.0668Q306.049 12.265 305.837 12.3812Q305.632 12.4906 305.406 12.5727Q304.982 12.682 304.62 12.8939Q304.258 13.1059 304.258 13.6664L304.258 21.3363Q304.258 21.8969 304.661 22.0951Q305.071 22.2865 305.488 22.4301Q305.714 22.5121 305.919 22.6146Q306.131 22.7104 306.131 22.9291Q306.131 23.1 305.919 23.141Q305.714 23.182 305.57 23.182Q305.009 23.182 304.688 23.141Q304.367 23.1 304.087 23.0727Q303.806 23.0453 303.307 23.0453Q302.829 23.0453 302.535 23.0727Q302.241 23.1 301.92 23.141Q301.598 23.182 301.038 23.182Q300.894 23.182 300.682 23.141Q300.477 23.1 300.477 22.9291Q300.477 22.7104 300.682 22.6146Q300.894 22.5121 301.12 22.4301Q301.544 22.2865 301.92 22.0951Q302.296 21.8969 302.296 21.3363L302.296 15.3754Q302.296 15.2592 302.268 15.2182Q302.259 15.205 302.248 15.2017Q302.223 15.1947 302.186 15.2318L296.615 21.0287Q296.526 21.1107 296.526 21.3363Q296.526 21.9242 296.929 22.1088Q297.34 22.2865 297.763 22.4301Q297.982 22.5121 298.194 22.6146Q298.406 22.7104 298.406 22.9291Q298.406 23.1 298.194 23.141Q297.982 23.182 297.845 23.182Q297.285 23.182 296.964 23.141Q296.642 23.1 296.362 23.0727Q296.082 23.0453 295.576 23.0453Q295.097 23.0453 294.803 23.0727Q294.509 23.1 294.188 23.141Q293.867 23.182 293.306 23.182ZM306.915 23.2094Q307.42 23.3803 308.008 23.3803Q308.74 23.3803 309.41 22.9223Q310.08 22.4574 310.695 21.7055Q311.31 20.9467 311.843 20.1059Q312.513 19.0395 312.821 18.6225Q313.135 18.1986 313.498 18.0893Q313.723 18.0346 313.942 18.0346Q314.168 18.0346 314.591 18.0893Q314.837 18.0893 314.837 18.3695L314.837 21.3637Q314.837 21.9516 314.42 22.1225Q314.003 22.2865 313.58 22.4301Q313.354 22.5121 313.142 22.6146Q312.937 22.7104 312.937 22.9291Q312.937 23.1273 313.204 23.1547Q313.47 23.182 313.58 23.182Q314.14 23.182 314.434 23.141Q314.728 23.1 315.008 23.0727Q315.289 23.0453 315.767 23.0453Q316.266 23.0453 316.546 23.0727Q316.827 23.1 317.148 23.141Q317.469 23.182 318.003 23.182Q318.119 23.182 318.385 23.1547Q318.652 23.1273 318.652 22.9291Q318.652 22.7104 318.44 22.6146Q318.228 22.5121 318.003 22.4301Q317.586 22.2865 317.189 22.1635Q316.799 22.0336 316.799 21.4457L316.799 13.8578Q316.799 13.2152 317.107 12.9623Q317.415 12.7094 317.838 12.6Q318.057 12.518 318.269 12.4086Q318.481 12.2924 318.481 12.0941Q318.481 11.9301 318.228 11.8891Q317.975 11.8412 317.838 11.8412Q317.305 11.8412 317.052 11.8617Q316.799 11.8754 316.587 11.8891Q316.382 11.9027 315.877 11.9027Q315.398 11.9027 314.947 11.8891Q314.503 11.8754 314.079 11.8617Q313.662 11.8412 313.272 11.8412Q312.151 11.8412 311.214 12.2104Q310.278 12.5727 309.704 13.2768Q309.129 13.974 309.129 14.9516Q309.129 16.1547 309.772 16.8178Q310.415 17.474 311.563 17.6928Q311.657 17.7157 311.666 17.7568Q311.681 17.8258 311.454 17.9457Q311.091 18.1439 310.852 18.4242Q310.613 18.7045 310.107 19.4291Q309.69 20.0785 309.211 20.7758Q308.74 21.473 308.179 21.9379Q307.619 22.4027 306.86 22.4027Q306.416 22.4027 306.416 22.8471Q306.416 23.0453 306.915 23.2094ZM63.9852 15.0336L61.4422 15.0336Q61.1004 15.0336 61.1004 14.7533Q61.1004 14.1928 61.5174 13.6391Q61.9412 13.0785 62.5838 12.7025Q63.2332 12.3197 63.8758 12.3197Q64.8533 12.3197 65.5643 12.8939Q66.2821 13.4682 66.2821 14.2816Q66.2821 14.5619 66.241 14.7191Q66.2 14.8695 66.0565 14.8969Q65.6121 14.9789 65.1336 15.0062Q64.6619 15.0336 63.9852 15.0336ZM139.501 22.6488Q140.458 22.6488 141.21 22.2865Q141.968 21.9242 142.385 21.1107Q142.727 20.4682 142.837 19.5453Q142.946 18.6225 142.946 17.809Q142.946 16.4623 142.454 15.2182Q141.968 13.974 141.087 13.1742Q140.205 12.3744 139.002 12.3744Q138.243 12.3744 137.641 12.6137Q137.04 12.8529 136.534 13.4955Q135.973 14.1928 135.802 15.2045Q135.638 16.2094 135.638 17.2211Q135.638 18.5951 136.144 19.8393Q136.65 21.0834 137.518 21.8695Q138.386 22.6488 139.501 22.6488ZM314.434 17.1801Q314.031 17.2758 313.354 17.2758Q312.404 17.2758 311.802 16.5102Q311.201 15.7377 311.201 14.7807Q311.201 13.9193 311.789 13.2904Q312.377 12.6547 313.245 12.6547Q314.14 12.6547 314.489 12.8666Q314.837 13.0785 314.837 13.7211L314.837 16.7973Q314.837 17.0775 314.434 17.1801ZM126.527 22.3754Q125.926 22.6215 125.502 22.6215Q124.75 22.6215 123.977 22.0473Q123.205 21.473 122.685 20.5229Q122.173 19.5727 122.173 18.4516Q122.173 18.1986 122.186 17.7406Q122.2 17.2758 122.214 16.6879Q122.227 16.1 122.241 15.4711Q122.255 14.8422 122.255 14.227Q122.255 14.0287 122.747 13.6801Q123.239 13.3246 123.95 13.0512Q124.661 12.7709 125.338 12.7709Q125.782 12.7709 126.425 12.9418Q127.074 13.1059 127.689 13.6117Q128.304 14.1107 128.721 15.0951Q129.145 16.0727 129.145 17.6928Q129.145 19.0941 128.735 20.0512Q128.332 21.0014 127.73 21.5619Q127.129 22.1225 126.527 22.3754ZM248.426 22.1498Q248.987 22.1498 249.376 21.9652Q249.766 21.7807 250.074 21.473Q250.217 21.3363 250.313 21.0971Q250.415 20.8578 250.443 20.3246L250.497 18.9574Q250.525 18.6498 250.47 18.5131Q250.415 18.3695 250.244 18.3695Q250.19 18.3695 250.046 18.3969Q249.91 18.4242 249.684 18.5062Q248.201 19.0395 247.626 19.6137Q247.052 20.1879 247.052 20.6664Q247.052 21.391 247.483 21.7738Q247.92 22.1498 248.426 22.1498ZM271.078 22.1498Q271.639 22.1498 272.028 21.9652Q272.418 21.7807 272.726 21.473Q272.869 21.3363 272.965 21.0971Q273.067 20.8578 273.095 20.3246L273.149 18.9574Q273.177 18.6498 273.122 18.5131Q273.067 18.3695 272.897 18.3695Q272.842 18.3695 272.698 18.3969Q272.562 18.4242 272.336 18.5062Q270.853 19.0395 270.278 19.6137Q269.704 20.1879 269.704 20.6664Q269.704 21.391 270.135 21.7738Q270.572 22.1498 271.078 22.1498Z" />
    </g>
    <g id="Group" transform="translate(103 7)">
      <path d="M0 92L0 22.7089L15.5773 15.1392L15.5773 92L0 92ZM27.5599 92L27.5599 9.31646L45.5338 0L45.5338 92L27.5599 92ZM60.0871 16.3038L60.0871 29.6962L120 44.2532L120 34.3544L60.0871 16.3038ZM60.0871 58.5078L60.0871 43.3685L120 55.5964L120 66.6597L60.0871 58.5078ZM60.0871 92L60.0871 75.6962L120 80.3544L120 92L60.0871 92Z" id="Vector" fill="#BF1B28" stroke="none" />
    </g>
  </g>
</svg>